<mxfile host="app.diagrams.net" modified="2023-09-12T15:17:12.429Z" agent="Mozilla/5.0 (Windows NT 10.0; Win64; x64) AppleWebKit/537.36 (KHTML, like Gecko) Chrome/116.0.0.0 Safari/537.36" version="21.7.4" etag="QGTsJv4zS-mW8UksejNn" type="github">
  <diagram name="Page-1" id="vBLGWCy5HwbodOJPq06y">
    <mxGraphModel>
      <root>
        <mxCell id="0" />
        <mxCell id="1" parent="0" />
      </root>
    </mxGraphModel>
  </diagram>
</mxfile>
